<?xml version="1.0" encoding="utf-8"?>
<!-- Generator: Adobe Illustrator 22.0.1, SVG Export Plug-In . SVG Version: 6.00 Build 0)  -->
<svg version="1.1" id="Layer_1" xmlns="http://www.w3.org/2000/svg" xmlns:xlink="http://www.w3.org/1999/xlink" x="0px" y="0px"
     viewBox="0 0 100 100" style="enable-background:new 0 0 100 100;" xml:space="preserve">
    <style type="text/css">
        /* ACÁ ESTÁ LA TRANSICIÓN */
        .st0{fill:#80CBF9;}
        #Relleno_00000065793347951348702270000016738190338884369792_:hover {
            opacity: 0;
            transition: opacity ease 1s;
            cursor: pointer;
        }
    </style>
    <path class="st0" d="M43.3,58.2c0,0-6.2-1.2-6.7-1.1c-3.1,0.3-3.2,0.8-6,0.5c-2.9-0.3-8.3-0.2-8.3-0.2l0.1,31.9h26.2l0-2.7
    L43.3,58.2z"/>
      <path id="gatillo" d="M47.3,23.4c-0.1,5.3,0.8,10.5,2.7,15.4h-2.7c-3-3.9-5.3-8.3-6.9-12.9L47.3,23.4z"/>
<g id="Relleno_00000065793347951348702270000016738190338884369792_">
    <g>
        <path d="M31.5,86.5h17v2.7H22.3v-47H32c2.6,7,11.6,10.7,11.6,18.3v1H31.5V86.5z"/>
        <path d="M48.5,89.2v2.2c-0.2,1.5-1.5,2.7-3.1,2.7H20.2c-1.5,0.1-2.7-1-2.8-2.5c0,0,0-0.1,0-0.1V37.3h18.7
            c0,8.9,12.4,11.3,12.4,23.2v26h-17v-25h12.1v-1c0-7.6-9-11.3-11.6-18.3h-9.7v47H48.5z"/>
    </g>
    <g>
    </g>
</g>
<g id="Tapa">
    <path d="M33.3,12.8h16.8v7.3l-14,4.9v9.8H17.4V24.4l9.7-9.5C28.8,13.5,31,12.7,33.3,12.8z"/>
    <rect id="_x3C_path_x3E_" x="52.6" y="12.8" width="3.7" height="7.4"/>
</g>
<path id="Cuerpo" d="M36.1,37.3c0,8.9,12.4,11.3,12.4,23.2v26h-17v-25h12.1v-1c0-7.6-9-11.3-11.6-18.3h-9.7v47h26.2v2.2
    c-0.2,1.5-1.5,2.7-3.1,2.7H20.2c-1.5,0.1-2.7-1-2.8-2.5c0,0,0-0.1,0-0.1V37.3H36.1z"/>
</svg>